<svg width="20" height="20" viewBox="0 0 20 20" fill="none" xmlns="http://www.w3.org/2000/svg">
<path d="M4.13143 4.15047C5.48508 2.79233 7.2679 1.94573 9.17592 1.75502C11.084 1.56431 12.9991 2.04128 14.5947 3.10463C16.1904 4.16797 17.3679 5.75186 17.9264 7.58624C18.485 9.42063 18.39 11.392 17.6576 13.1641C16.9253 14.9363 15.6009 16.3996 13.9104 17.3046C12.2198 18.2095 10.2677 18.5001 8.38687 18.1268C6.50603 17.7535 4.81289 16.7394 3.59612 15.2573C2.37935 13.7753 1.71428 11.9171 1.71429 9.9996C1.71429 9.77227 1.62398 9.55426 1.46323 9.39351C1.30249 9.23276 1.08447 9.14246 0.857143 9.14246C0.629814 9.14246 0.411797 9.23276 0.251051 9.39351C0.0903057 9.55426 7.99487e-09 9.77227 7.99487e-09 9.9996C-9.24955e-05 12.3139 0.802543 14.5566 2.27106 16.3453C3.73958 18.1341 5.78306 19.3581 8.05309 19.8086C10.3231 20.2592 12.6792 19.9085 14.7195 18.8162C16.7599 17.724 18.3582 15.9578 19.2421 13.8189C20.1259 11.68 20.2405 9.30078 19.5663 7.08684C18.8921 4.8729 17.4708 2.96135 15.5449 1.67809C13.6189 0.394831 11.3075 -0.180681 9.00464 0.0496758C6.70182 0.280033 4.55018 1.302 2.91657 2.94133C2.88779 2.96989 2.86106 3.00044 2.83657 3.03275L1.4 1.59504C1.32317 1.51804 1.22596 1.46457 1.1198 1.4409C1.01363 1.41724 0.902912 1.42437 0.800656 1.46146C0.6984 1.49854 0.608853 1.56404 0.542537 1.65026C0.476221 1.73648 0.435891 1.83984 0.426286 1.94818L0.0228571 6.39275C0.0153166 6.47613 0.0261912 6.56015 0.0547115 6.63887C0.0832317 6.71759 0.128701 6.78907 0.187902 6.84827C0.247104 6.90748 0.318591 6.95294 0.397308 6.98146C0.476024 7.00998 0.560045 7.02086 0.643428 7.01332L5.08914 6.60875C5.19707 6.59858 5.29987 6.55792 5.38556 6.49152C5.47124 6.42512 5.53628 6.33572 5.57306 6.23375C5.60985 6.13178 5.61687 6.02145 5.59331 5.91564C5.56975 5.80983 5.51658 5.71291 5.44 5.63618L4.03657 4.23275C4.07014 4.20766 4.10184 4.18016 4.13143 4.15047Z" fill="#CECECE"/>
<path d="M10.8572 4.28524C10.8572 4.05791 10.7669 3.8399 10.6061 3.67915C10.4454 3.51841 10.2274 3.4281 10 3.4281C9.7727 3.4281 9.55468 3.51841 9.39394 3.67915C9.23319 3.8399 9.14288 4.05791 9.14288 4.28524V9.99952C9.14282 10.1448 9.17971 10.2878 9.25008 10.4149C9.32045 10.5421 9.422 10.6493 9.54517 10.7264L12.9737 12.8692C13.1665 12.9899 13.3993 13.029 13.6209 12.978C13.7307 12.9527 13.8343 12.9061 13.9261 12.8408C14.0178 12.7754 14.0957 12.6927 14.1555 12.5972C14.2152 12.5018 14.2555 12.3955 14.2742 12.2844C14.2929 12.1734 14.2895 12.0598 14.2642 11.95C14.2389 11.8403 14.1923 11.7366 14.127 11.6449C14.0617 11.5532 13.9789 11.4752 13.8835 11.4155L10.8572 9.52409V4.28524Z" fill="#CECECE"/>
</svg>
