<svg width="22" height="23" viewBox="0 0 22 23" fill="none" xmlns="http://www.w3.org/2000/svg">
<path d="M15.8839 3.75895L17.6731 1.96864C18.0461 1.59565 18.552 1.38611 19.0795 1.38611C19.607 1.38611 20.1129 1.59565 20.4859 1.96864C20.8588 2.34163 21.0684 2.84752 21.0684 3.37501C21.0684 3.9025 20.8588 4.40838 20.4859 4.78137L9.22328 16.0439C8.66256 16.6043 7.97109 17.0162 7.21131 17.2424L4.36358 18.0909L5.21207 15.2432C5.43827 14.4834 5.85016 13.7919 6.41055 13.2312L15.8839 3.75895ZM15.8839 3.75895L18.6818 6.55683M17.0909 13.8485V18.8864C17.0909 19.5193 16.8394 20.1263 16.3919 20.5738C15.9444 21.0213 15.3374 21.2727 14.7045 21.2727H3.56813C2.93522 21.2727 2.32824 21.0213 1.88071 20.5738C1.43318 20.1263 1.18176 19.5193 1.18176 18.8864V7.75001C1.18176 7.1171 1.43318 6.51012 1.88071 6.06259C2.32824 5.61506 2.93522 5.36364 3.56813 5.36364H8.60601" stroke="#CECECE" stroke-width="1.5" stroke-linecap="round" stroke-linejoin="round"/>
</svg>
